<svg width="96" height="80" viewBox="0 0 96 80" fill="none" xmlns="http://www.w3.org/2000/svg">
<g clip-path="url(#clip0_4767_19274)">
<path d="M25.8165 72.9678C25.8165 73.2207 25.855 73.4458 25.9311 73.6421C26.0072 73.8385 26.112 74.0041 26.2444 74.139C26.3768 74.2739 26.531 74.375 26.7089 74.4434C26.8867 74.5119 27.0745 74.5456 27.2732 74.5456C27.4718 74.5456 27.6507 74.5208 27.8206 74.4702C27.9896 74.4196 28.1379 74.3373 28.2634 74.2223C28.3889 74.1072 28.4877 73.9575 28.5589 73.772C28.63 73.5866 28.6666 73.3605 28.6666 73.0907L28.6715 72.5701C28.6715 72.2815 28.6369 72.0485 28.5668 71.8719C28.4966 71.6954 28.3978 71.5576 28.2713 71.4584C28.1438 71.3592 27.9936 71.2928 27.8197 71.2591C27.6457 71.2253 27.452 71.2045 27.2405 71.1986L27.2257 70.0006C27.5222 69.9817 27.7752 69.9173 27.9837 69.8082C28.1922 69.6991 28.3612 69.5464 28.4917 69.348C28.6221 69.1497 28.717 68.9077 28.7753 68.6201C28.8336 68.3325 28.8632 68.0023 28.8632 67.6294H30.5057C30.5057 67.9279 30.484 68.2254 30.4395 68.5199C30.396 68.8155 30.3199 69.0942 30.2122 69.355C30.1045 69.6158 29.9592 69.8508 29.7774 70.0581C29.5946 70.2654 29.3653 70.433 29.0886 70.5589C29.3821 70.6531 29.6123 70.781 29.7803 70.9437C29.9484 71.1063 30.0739 71.2799 30.1569 71.4673C30.2399 71.6538 30.2913 71.8442 30.311 72.0395C30.3308 72.2339 30.3387 72.4114 30.3357 72.5701L30.3308 73.2127C30.3338 73.5311 30.2962 73.8216 30.2162 74.0844C30.1361 74.3472 30.0264 74.5823 29.8861 74.7876C29.7458 74.9938 29.5797 75.1723 29.388 75.3251C29.1953 75.4778 28.9858 75.6037 28.7575 75.7049C28.5292 75.8051 28.2891 75.8804 28.0361 75.929C27.7831 75.9776 27.5271 76.0024 27.2662 76.0024C27.0053 76.0024 26.7365 75.9756 26.4796 75.9221C26.2217 75.8685 25.9785 75.7902 25.7493 75.686C25.52 75.5819 25.3065 75.452 25.1118 75.2943C24.9162 75.1376 24.7482 74.9552 24.6059 74.7489C24.4645 74.5426 24.3529 74.3115 24.2708 74.0557C24.1898 73.7988 24.1483 73.5192 24.1483 73.2137C24.1483 72.8894 24.1532 72.5979 24.1631 72.34C24.173 72.0822 24.2056 71.8432 24.261 71.624C24.3163 71.4048 24.4052 71.1976 24.5278 71.0012C24.6503 70.8048 24.8253 70.6045 25.0535 70.4002C25.099 70.3546 25.1524 70.2991 25.2126 70.2326C25.2729 70.1662 25.3332 70.0918 25.3935 70.0115C25.4538 69.9302 25.5101 69.8469 25.5625 69.7606C25.6149 69.6743 25.6534 69.589 25.6801 69.5047C25.5664 69.5831 25.4409 69.6416 25.3036 69.6822C25.1662 69.7229 25.0229 69.7427 24.8737 69.7427C24.7788 69.7427 24.6671 69.7328 24.5387 69.713C24.4102 69.6941 24.2768 69.6565 24.1404 69.6009C24.003 69.5464 23.8676 69.469 23.7322 69.3728C23.5969 69.2756 23.4763 69.1477 23.3705 68.99C23.2648 68.8333 23.1788 68.6429 23.1136 68.4208C23.0484 68.1986 23.0177 67.9348 23.0207 67.6294H24.5851C24.5821 67.7335 24.592 67.8327 24.6148 67.9289C24.6375 68.0251 24.6721 68.1094 24.7175 68.1818C24.763 68.2552 24.8213 68.3137 24.8915 68.3573C24.9616 68.4009 25.0407 68.4228 25.1286 68.4228C25.2166 68.4228 25.3026 68.4029 25.3757 68.3642C25.4488 68.3256 25.5121 68.27 25.5635 68.1986C25.6159 68.1272 25.6554 68.0429 25.6831 67.9458C25.7107 67.8486 25.7246 67.7434 25.7246 67.6294H27.3275V69.3232C27.3245 69.4819 27.3028 69.6277 27.2643 69.7586C27.2247 69.8905 27.1654 70.0194 27.0854 70.1483C27.0053 70.2763 26.9045 70.4101 26.782 70.548C26.6594 70.6858 26.5152 70.8425 26.3491 71.0181C26.2217 71.148 26.1218 71.2918 26.0487 71.4514C25.9756 71.6101 25.9212 71.7757 25.8876 71.9483C25.853 72.1199 25.8333 72.2934 25.8264 72.4689C25.8194 72.6445 25.8184 72.8111 25.8214 72.9698L25.8165 72.9678Z" fill="#231F20"/>
<path d="M23.8369 65.0913H28.8029L28.7732 63.938H30.3327L30.3426 66.3915H23.1768L23.8369 65.0913Z" fill="#231F20"/>
<path d="M32.0234 75.8011V67.6284H33.6857V75.8011H32.0234Z" fill="#231F20"/>
<path d="M41.8625 70.3199C41.8596 70.5312 41.827 70.7761 41.7647 71.0548C41.7024 71.3335 41.6224 71.632 41.5226 71.9483C41.4228 72.2647 41.3091 72.5929 41.1806 72.9311C41.0522 73.2703 40.9188 73.6074 40.7794 73.9436C40.6411 74.2798 40.4997 74.6061 40.3564 74.9225C40.2131 75.2388 40.0797 75.5314 39.9552 75.8011H37.8927L36.5734 72.1744H35.4735V70.8743H37.8591L38.9689 74.0874C39.0895 73.7988 39.216 73.4904 39.3504 73.1622C39.4838 72.8349 39.6073 72.5086 39.719 72.1863C39.8317 71.863 39.9246 71.5506 39.9997 71.2492C40.0748 70.9467 40.1173 70.6769 40.1272 70.436C40.1341 69.9034 39.9977 69.5047 39.719 69.239C39.4403 68.9732 39.0243 68.8403 38.4699 68.8403C38.0271 68.8403 37.6763 68.9405 37.4194 69.1418C37.1624 69.3431 36.9816 69.6694 36.8768 70.1196H35.0732C35.1414 69.717 35.2699 69.352 35.4567 69.0248C35.6444 68.6975 35.8866 68.4178 36.185 68.1878C36.4835 67.9577 36.8353 67.7802 37.2405 67.6552C37.6457 67.5303 38.1052 67.4678 38.6161 67.4678C38.8701 67.4678 39.128 67.4866 39.3879 67.5243C39.6488 67.562 39.8999 67.6235 40.143 67.7098C40.3861 67.796 40.6134 67.9091 40.8249 68.0499C41.0364 68.1907 41.2212 68.3673 41.3773 68.5785C41.5334 68.7897 41.655 69.0386 41.741 69.3252C41.827 69.6128 41.8675 69.9441 41.8606 70.3209L41.8625 70.3199Z" fill="#231F20"/>
<path d="M46.457 75.8011V67.6284H48.1193V75.8011H46.457Z" fill="#231F20"/>
<path d="M49.5266 70.2997C49.6175 69.8654 49.7598 69.4707 49.9515 69.1166C50.1432 68.7626 50.3903 68.4611 50.6917 68.2112C50.9931 67.9613 51.3519 67.7679 51.7669 67.632C52.182 67.4962 52.6603 67.4277 53.2019 67.4277C53.6585 67.4277 54.0676 67.4783 54.4313 67.5785C54.7949 67.6796 55.1151 67.8214 55.3919 68.0039C55.6686 68.1874 55.9057 68.4085 56.1034 68.6684C56.3001 68.9282 56.4611 69.2168 56.5847 69.5351C56.7082 69.8535 56.7991 70.1976 56.8564 70.5665C56.9138 70.9364 56.9424 71.3242 56.9424 71.7298C56.9424 72.1096 56.9138 72.4785 56.8564 72.8345C56.7991 73.1916 56.7082 73.5277 56.5827 73.8421C56.4572 74.1565 56.2961 74.4451 56.0985 74.7059C55.9008 74.9667 55.6646 75.1928 55.3899 75.3822C55.1142 75.5717 54.7969 75.7184 54.4372 75.8226C54.0775 75.9267 53.6723 75.9783 53.2226 75.9783C52.773 75.9783 52.3629 75.9267 52.0031 75.8226C51.6434 75.7184 51.3252 75.5736 51.0505 75.3872C50.7747 75.2008 50.5395 74.9766 50.3439 74.7158C50.1482 74.455 49.9891 74.1664 49.8646 73.852C49.741 73.5377 49.6501 73.2005 49.5938 72.8425C49.5365 72.4835 49.5098 72.1136 49.5127 71.7298C49.5127 71.701 49.5127 71.6534 49.5108 71.589C49.5088 71.5235 49.5088 71.4571 49.5088 71.3896V71.1367H53.2137L53.2039 72.4319H51.2046C51.2175 72.7562 51.2758 73.0517 51.3805 73.3175C51.4843 73.5833 51.6246 73.8114 51.8005 74.0018C51.9765 74.1912 52.184 74.339 52.4241 74.4451C52.6633 74.5502 52.9252 74.6038 53.2088 74.6038C53.525 74.6038 53.8087 74.5403 54.0617 74.4133C54.3137 74.2874 54.5281 74.101 54.704 73.856C54.8799 73.611 55.0163 73.3106 55.1122 72.9535C55.208 72.5965 55.2575 72.1889 55.2614 71.7318C55.2614 70.7936 55.0914 70.0776 54.7505 69.5827C54.4095 69.0879 53.8947 68.8409 53.2039 68.8409C52.943 68.8409 52.7028 68.8727 52.4824 68.9361C52.2621 68.9996 52.0674 69.0938 51.8984 69.2188C51.7294 69.3437 51.59 69.4974 51.4833 69.6789C51.3756 69.8604 51.3044 70.0687 51.2679 70.3017H49.5276L49.5266 70.2997Z" fill="#231F20"/>
<path d="M51.5993 64.4974C51.5993 64.5361 51.6043 64.5857 51.6141 64.6461C51.624 64.7066 51.6448 64.7652 51.6774 64.8237C51.71 64.8822 51.7584 64.9318 51.8217 64.9724C51.8849 65.0131 51.9689 65.0329 52.0737 65.0329C52.2427 65.0329 52.3721 64.9685 52.4601 64.8405C52.548 64.7126 52.5886 64.5381 52.5826 64.3169H53.7023C53.6895 64.5381 53.7221 64.7126 53.8002 64.8405C53.8782 64.9685 54.0037 65.0329 54.1767 65.0329C54.2646 65.0329 54.3368 65.0151 54.3941 64.9794C54.4514 64.9437 54.4939 64.8941 54.5236 64.8306C54.5532 64.7671 54.57 64.6918 54.5749 64.6045C54.5799 64.5172 54.5749 64.421 54.5631 64.3169H55.7846C55.83 64.664 55.8231 64.9615 55.7628 65.2075C55.7025 65.4544 55.6047 65.6557 55.4693 65.8134C55.3339 65.9711 55.1709 66.0861 54.9782 66.1585C54.7854 66.2319 54.5789 66.2686 54.3575 66.2686C54.2142 66.2686 54.0808 66.2497 53.9563 66.2121C53.8328 66.1754 53.7201 66.1248 53.6193 66.0633C53.5185 66.0018 53.4286 65.9304 53.3505 65.8491C53.2724 65.7678 53.2072 65.6815 53.1548 65.5913C53.1025 65.6825 53.0323 65.7678 52.9443 65.8491C52.8564 65.9304 52.7556 66.0018 52.6409 66.0633C52.5273 66.1248 52.4047 66.1744 52.2743 66.2121C52.1438 66.2497 52.0104 66.2686 51.8731 66.2686C51.5371 66.2686 51.2594 66.2121 51.037 66.101C50.8156 65.9889 50.6378 65.8461 50.5043 65.6726C50.3709 65.499 50.2761 65.3086 50.2207 65.1004C50.1654 64.8931 50.1377 64.6918 50.1377 64.4964C50.1377 64.1652 50.196 63.8825 50.3136 63.6475C50.4312 63.4125 50.5893 63.2181 50.7899 63.0654C50.9906 62.9126 51.2228 62.8006 51.4867 62.7292C51.7505 62.6578 52.0272 62.6221 52.3178 62.6221H56.3014L56.2915 63.7953H52.4502C52.2545 63.7953 52.1004 63.8191 51.9887 63.8677C51.876 63.9163 51.791 63.9767 51.7317 64.0481C51.6734 64.1196 51.6369 64.1959 51.622 64.2762C51.6072 64.3576 51.6003 64.431 51.6003 64.4954L51.5993 64.4974Z" fill="#231F20"/>
<path d="M61.453 68.8401C61.1141 68.8372 60.8186 68.8729 60.5656 68.9492C60.3126 69.0256 60.0991 69.1218 59.9252 69.2388C59.7513 69.3558 59.6139 69.4808 59.5151 69.6137C59.4153 69.7466 59.353 69.8685 59.3273 69.9786C59.4083 70.053 59.4844 70.1413 59.5546 70.2434C59.6248 70.3455 59.686 70.4576 59.7374 70.5796C59.7898 70.7016 59.8293 70.8315 59.857 70.9693C59.8847 71.1072 59.8965 71.249 59.8936 71.3948L59.9133 75.8H58.2709L58.2659 71.3749C58.2629 71.2649 58.2511 71.1528 58.2313 71.0388C58.2116 70.9247 58.178 70.8136 58.1285 70.7055C58.0801 70.5974 58.0109 70.4933 57.923 70.3961C57.835 70.2989 57.7214 70.2127 57.5811 70.1383C57.6295 69.9181 57.7036 69.699 57.8014 69.4818C57.8993 69.2646 58.0238 69.0563 58.175 68.856C58.3262 68.6567 58.5061 68.4702 58.7126 68.2987C58.9191 68.1261 59.1583 67.9773 59.4291 67.8504C59.6999 67.7245 60.0023 67.6253 60.3383 67.5539C60.6743 67.4825 61.0449 67.4468 61.453 67.4468C61.9353 67.4468 62.3642 67.4904 62.7407 67.5787C63.1172 67.6659 63.4463 67.7889 63.728 67.9466C64.0096 68.1043 64.2478 68.2897 64.4415 68.5039C64.6352 68.7182 64.7913 68.9532 64.9109 69.2071C65.0295 69.4619 65.1155 69.7307 65.1679 70.0123C65.2202 70.295 65.2459 70.5816 65.2459 70.8741L65.2608 75.8H63.5985L63.5738 70.7373C63.5738 70.5072 63.5382 70.2801 63.4691 70.056C63.3989 69.8318 63.2813 69.6305 63.1172 69.452C62.9522 69.2735 62.7348 69.1287 62.462 69.0167C62.1903 68.9046 61.8533 68.8451 61.453 68.8391V68.8401Z" fill="#231F20"/>
<path d="M68.9551 72.9678C68.9551 73.2207 68.9937 73.4458 69.0698 73.6421C69.1459 73.8385 69.2506 74.0041 69.3831 74.139C69.5155 74.2739 69.6696 74.375 69.8475 74.4434C70.0254 74.5119 70.2132 74.5456 70.4118 74.5456C70.6105 74.5456 70.7893 74.5208 70.9593 74.4702C71.1283 74.4196 71.2765 74.3373 71.4021 74.2223C71.5276 74.1072 71.6264 73.9575 71.6975 73.772C71.7687 73.5866 71.8053 73.3605 71.8053 73.0907L71.8102 72.5701C71.8102 72.2815 71.7756 72.0485 71.7054 71.8719C71.6353 71.6954 71.5365 71.5576 71.41 71.4584C71.2825 71.3592 71.1323 71.2928 70.9583 71.2591C70.7844 71.2253 70.5907 71.2045 70.3792 71.1986L70.3644 70.0006C70.6609 69.9817 70.9139 69.9173 71.1224 69.8082C71.3309 69.6991 71.4999 69.5464 71.6303 69.348C71.7608 69.1497 71.8557 68.9077 71.914 68.6201C71.9723 68.3325 72.0019 68.0023 72.0019 67.6294H73.6444C73.6444 67.9279 73.6227 68.2254 73.5782 68.5199C73.5347 68.8155 73.4586 69.0942 73.3509 69.355C73.2432 69.6158 73.0979 69.8508 72.9161 70.0581C72.7332 70.2654 72.504 70.433 72.2272 70.5589C72.5208 70.6531 72.751 70.781 72.919 70.9437C73.087 71.1063 73.2125 71.2799 73.2955 71.4673C73.3786 71.6538 73.4299 71.8442 73.4497 72.0395C73.4695 72.2339 73.4774 72.4114 73.4744 72.5701L73.4695 73.2127C73.4724 73.5311 73.4349 73.8216 73.3548 74.0844C73.2748 74.3472 73.1651 74.5823 73.0248 74.7876C72.8844 74.9938 72.7184 75.1723 72.5267 75.3251C72.334 75.4778 72.1245 75.6037 71.8962 75.7049C71.6679 75.8051 71.4277 75.8804 71.1748 75.929C70.9218 75.9776 70.6658 76.0024 70.4049 76.0024C70.144 76.0024 69.8752 75.9756 69.6183 75.9221C69.3603 75.8685 69.1172 75.7902 68.8879 75.686C68.6587 75.5819 68.4452 75.452 68.2505 75.2943C68.0548 75.1376 67.8868 74.9552 67.7445 74.7489C67.6032 74.5426 67.4915 74.3115 67.4095 74.0557C67.3285 73.7988 67.287 73.5192 67.287 73.2137C67.287 72.8894 67.2919 72.5979 67.3018 72.34C67.3117 72.0822 67.3443 71.8432 67.3996 71.624C67.455 71.4048 67.5439 71.1976 67.6665 71.0012C67.789 70.8048 67.9639 70.6045 68.1922 70.4002C68.2377 70.3546 68.291 70.2991 68.3513 70.2326C68.4116 70.1662 68.4719 70.0918 68.5322 70.0115C68.5925 69.9302 68.6488 69.8469 68.7012 69.7606C68.7535 69.6743 68.7921 69.589 68.8188 69.5047C68.7051 69.5831 68.5796 69.6416 68.4422 69.6822C68.3049 69.7229 68.1616 69.7427 68.0123 69.7427C67.9175 69.7427 67.8058 69.7328 67.6773 69.713C67.5489 69.6941 67.4154 69.6565 67.2791 69.6009C67.1417 69.5464 67.0063 69.469 66.8709 69.3728C66.7355 69.2756 66.615 69.1477 66.5092 68.99C66.4035 68.8333 66.3175 68.6429 66.2523 68.4208C66.187 68.1986 66.1564 67.9348 66.1594 67.6294H67.7238C67.7208 67.7335 67.7307 67.8327 67.7534 67.9289C67.7762 68.0251 67.8107 68.1094 67.8562 68.1818C67.9017 68.2552 67.96 68.3137 68.0301 68.3573C68.1003 68.4009 68.1794 68.4228 68.2673 68.4228C68.3553 68.4228 68.4413 68.4029 68.5144 68.3642C68.5875 68.3256 68.6508 68.27 68.7021 68.1986C68.7545 68.1272 68.7941 68.0429 68.8217 67.9458C68.8494 67.8486 68.8632 67.7434 68.8632 67.6294H70.4662V69.3232C70.4632 69.4819 70.4415 69.6277 70.4029 69.7586C70.3634 69.8905 70.3041 70.0194 70.2241 70.1483C70.144 70.2763 70.0432 70.4101 69.9207 70.548C69.7981 70.6858 69.6538 70.8425 69.4878 71.0181C69.3603 71.148 69.2605 71.2918 69.1874 71.4514C69.1143 71.6101 69.0599 71.7757 69.0263 71.9483C68.9917 72.1199 68.9719 72.2934 68.965 72.4689C68.9581 72.6445 68.9571 72.8111 68.9601 72.9698L68.9551 72.9678Z" fill="#231F20"/>
<path d="M73.843 65.1937C73.3509 65.1937 72.9743 65.2879 72.7115 65.4763C72.4496 65.6648 72.3162 65.9633 72.3132 66.3718H70.8516C70.8516 65.999 70.9198 65.6638 71.0571 65.3663C71.1935 65.0697 71.3911 64.8168 71.6481 64.6096C71.905 64.4023 72.2183 64.2426 72.5869 64.1326C72.9556 64.0225 73.3726 63.964 73.8381 63.957L73.843 65.1937Z" fill="#231F20"/>
<path d="M25.8165 72.9678C25.8165 73.2207 25.855 73.4458 25.9311 73.6421C26.0072 73.8385 26.112 74.0041 26.2444 74.139C26.3768 74.2739 26.531 74.375 26.7089 74.4434C26.8867 74.5119 27.0745 74.5456 27.2732 74.5456C27.4718 74.5456 27.6507 74.5208 27.8206 74.4702C27.9896 74.4196 28.1379 74.3373 28.2634 74.2223C28.3889 74.1072 28.4877 73.9575 28.5589 73.772C28.63 73.5866 28.6666 73.3605 28.6666 73.0907L28.6715 72.5701C28.6715 72.2815 28.6369 72.0485 28.5668 71.8719C28.4966 71.6954 28.3978 71.5576 28.2713 71.4584C28.1438 71.3592 27.9936 71.2928 27.8197 71.2591C27.6457 71.2253 27.452 71.2045 27.2405 71.1986L27.2257 70.0006C27.5222 69.9817 27.7752 69.9173 27.9837 69.8082C28.1922 69.6991 28.3612 69.5464 28.4917 69.348C28.6221 69.1497 28.717 68.9077 28.7753 68.6201C28.8336 68.3325 28.8632 68.0023 28.8632 67.6294H30.5057C30.5057 67.9279 30.484 68.2254 30.4395 68.5199C30.396 68.8155 30.3199 69.0942 30.2122 69.355C30.1045 69.6158 29.9592 69.8508 29.7774 70.0581C29.5946 70.2654 29.3653 70.433 29.0886 70.5589C29.3821 70.6531 29.6123 70.781 29.7803 70.9437C29.9484 71.1063 30.0739 71.2799 30.1569 71.4673C30.2399 71.6538 30.2913 71.8442 30.311 72.0395C30.3308 72.2339 30.3387 72.4114 30.3357 72.5701L30.3308 73.2127C30.3338 73.5311 30.2962 73.8216 30.2162 74.0844C30.1361 74.3472 30.0264 74.5823 29.8861 74.7876C29.7458 74.9938 29.5797 75.1723 29.388 75.3251C29.1953 75.4778 28.9858 75.6037 28.7575 75.7049C28.5292 75.8051 28.2891 75.8804 28.0361 75.929C27.7831 75.9776 27.5271 76.0024 27.2662 76.0024C27.0053 76.0024 26.7365 75.9756 26.4796 75.9221C26.2217 75.8685 25.9785 75.7902 25.7493 75.686C25.52 75.5819 25.3065 75.452 25.1118 75.2943C24.9162 75.1376 24.7482 74.9552 24.6059 74.7489C24.4645 74.5426 24.3529 74.3115 24.2708 74.0557C24.1898 73.7988 24.1483 73.5192 24.1483 73.2137C24.1483 72.8894 24.1532 72.5979 24.1631 72.34C24.173 72.0822 24.2056 71.8432 24.261 71.624C24.3163 71.4048 24.4052 71.1976 24.5278 71.0012C24.6503 70.8048 24.8253 70.6045 25.0535 70.4002C25.099 70.3546 25.1524 70.2991 25.2126 70.2326C25.2729 70.1662 25.3332 70.0918 25.3935 70.0115C25.4538 69.9302 25.5101 69.8469 25.5625 69.7606C25.6149 69.6743 25.6534 69.589 25.6801 69.5047C25.5664 69.5831 25.4409 69.6416 25.3036 69.6822C25.1662 69.7229 25.0229 69.7427 24.8737 69.7427C24.7788 69.7427 24.6671 69.7328 24.5387 69.713C24.4102 69.6941 24.2768 69.6565 24.1404 69.6009C24.003 69.5464 23.8676 69.469 23.7322 69.3728C23.5969 69.2756 23.4763 69.1477 23.3705 68.99C23.2648 68.8333 23.1788 68.6429 23.1136 68.4208C23.0484 68.1986 23.0177 67.9348 23.0207 67.6294H24.5851C24.5821 67.7335 24.592 67.8327 24.6148 67.9289C24.6375 68.0251 24.6721 68.1094 24.7175 68.1818C24.763 68.2552 24.8213 68.3137 24.8915 68.3573C24.9616 68.4009 25.0407 68.4228 25.1286 68.4228C25.2166 68.4228 25.3026 68.4029 25.3757 68.3642C25.4488 68.3256 25.5121 68.27 25.5635 68.1986C25.6159 68.1272 25.6554 68.0429 25.6831 67.9458C25.7107 67.8486 25.7246 67.7434 25.7246 67.6294H27.3275V69.3232C27.3245 69.4819 27.3028 69.6277 27.2643 69.7586C27.2247 69.8905 27.1654 70.0194 27.0854 70.1483C27.0053 70.2763 26.9045 70.4101 26.782 70.548C26.6594 70.6858 26.5152 70.8425 26.3491 71.0181C26.2217 71.148 26.1218 71.2918 26.0487 71.4514C25.9756 71.6101 25.9212 71.7757 25.8876 71.9483C25.853 72.1199 25.8333 72.2934 25.8264 72.4689C25.8194 72.6445 25.8184 72.8111 25.8214 72.9698L25.8165 72.9678Z" fill="#30170E"/>
<path d="M23.8369 65.0913H28.8029L28.7732 63.938H30.3327L30.3426 66.3915H23.1768L23.8369 65.0913Z" fill="#30170E"/>
<path d="M32.0234 75.8011V67.6284H33.6857V75.8011H32.0234Z" fill="#30170E"/>
<path d="M41.8625 70.3199C41.8596 70.5312 41.827 70.7761 41.7647 71.0548C41.7024 71.3335 41.6224 71.632 41.5226 71.9483C41.4228 72.2647 41.3091 72.5929 41.1806 72.9311C41.0522 73.2703 40.9188 73.6074 40.7794 73.9436C40.6411 74.2798 40.4997 74.6061 40.3564 74.9225C40.2131 75.2388 40.0797 75.5314 39.9552 75.8011H37.8927L36.5734 72.1744H35.4735V70.8743H37.8591L38.9689 74.0874C39.0895 73.7988 39.216 73.4904 39.3504 73.1622C39.4838 72.8349 39.6073 72.5086 39.719 72.1863C39.8317 71.863 39.9246 71.5506 39.9997 71.2492C40.0748 70.9467 40.1173 70.6769 40.1272 70.436C40.1341 69.9034 39.9977 69.5047 39.719 69.239C39.4403 68.9732 39.0243 68.8403 38.4699 68.8403C38.0271 68.8403 37.6763 68.9405 37.4194 69.1418C37.1624 69.3431 36.9816 69.6694 36.8768 70.1196H35.0732C35.1414 69.717 35.2699 69.352 35.4567 69.0248C35.6444 68.6975 35.8866 68.4178 36.185 68.1878C36.4835 67.9577 36.8353 67.7802 37.2405 67.6552C37.6457 67.5303 38.1052 67.4678 38.6161 67.4678C38.8701 67.4678 39.128 67.4866 39.3879 67.5243C39.6488 67.562 39.8999 67.6235 40.143 67.7098C40.3861 67.796 40.6134 67.9091 40.8249 68.0499C41.0364 68.1907 41.2212 68.3673 41.3773 68.5785C41.5334 68.7897 41.655 69.0386 41.741 69.3252C41.827 69.6128 41.8675 69.9441 41.8606 70.3209L41.8625 70.3199Z" fill="#30170E"/>
<path d="M46.457 75.8011V67.6284H48.1193V75.8011H46.457Z" fill="#30170E"/>
<path d="M49.5266 70.2997C49.6175 69.8654 49.7598 69.4707 49.9515 69.1166C50.1432 68.7626 50.3903 68.4611 50.6917 68.2112C50.9931 67.9613 51.3519 67.7679 51.7669 67.632C52.182 67.4962 52.6603 67.4277 53.2019 67.4277C53.6585 67.4277 54.0676 67.4783 54.4313 67.5785C54.7949 67.6796 55.1151 67.8214 55.3919 68.0039C55.6686 68.1874 55.9057 68.4085 56.1034 68.6684C56.3001 68.9282 56.4611 69.2168 56.5847 69.5351C56.7082 69.8535 56.7991 70.1976 56.8564 70.5665C56.9138 70.9364 56.9424 71.3242 56.9424 71.7298C56.9424 72.1096 56.9138 72.4785 56.8564 72.8345C56.7991 73.1916 56.7082 73.5277 56.5827 73.8421C56.4572 74.1565 56.2961 74.4451 56.0985 74.7059C55.9008 74.9667 55.6646 75.1928 55.3899 75.3822C55.1142 75.5717 54.7969 75.7184 54.4372 75.8226C54.0775 75.9267 53.6723 75.9783 53.2226 75.9783C52.773 75.9783 52.3629 75.9267 52.0031 75.8226C51.6434 75.7184 51.3252 75.5736 51.0505 75.3872C50.7747 75.2008 50.5395 74.9766 50.3439 74.7158C50.1482 74.455 49.9891 74.1664 49.8646 73.852C49.741 73.5377 49.6501 73.2005 49.5938 72.8425C49.5365 72.4835 49.5098 72.1136 49.5127 71.7298C49.5127 71.701 49.5127 71.6534 49.5108 71.589C49.5088 71.5235 49.5088 71.4571 49.5088 71.3896V71.1367H53.2137L53.2039 72.4319H51.2046C51.2175 72.7562 51.2758 73.0517 51.3805 73.3175C51.4843 73.5833 51.6246 73.8114 51.8005 74.0018C51.9765 74.1912 52.184 74.339 52.4241 74.4451C52.6633 74.5502 52.9252 74.6038 53.2088 74.6038C53.525 74.6038 53.8087 74.5403 54.0617 74.4133C54.3137 74.2874 54.5281 74.101 54.704 73.856C54.8799 73.611 55.0163 73.3106 55.1122 72.9535C55.208 72.5965 55.2575 72.1889 55.2614 71.7318C55.2614 70.7936 55.0914 70.0776 54.7505 69.5827C54.4095 69.0879 53.8947 68.8409 53.2039 68.8409C52.943 68.8409 52.7028 68.8727 52.4824 68.9361C52.2621 68.9996 52.0674 69.0938 51.8984 69.2188C51.7294 69.3437 51.59 69.4974 51.4833 69.6789C51.3756 69.8604 51.3044 70.0687 51.2679 70.3017H49.5276L49.5266 70.2997Z" fill="#30170E"/>
<path d="M51.5993 64.4974C51.5993 64.5361 51.6043 64.5857 51.6141 64.6461C51.624 64.7066 51.6448 64.7652 51.6774 64.8237C51.71 64.8822 51.7584 64.9318 51.8217 64.9724C51.8849 65.0131 51.9689 65.0329 52.0737 65.0329C52.2427 65.0329 52.3721 64.9685 52.4601 64.8405C52.548 64.7126 52.5886 64.5381 52.5826 64.3169H53.7023C53.6895 64.5381 53.7221 64.7126 53.8002 64.8405C53.8782 64.9685 54.0037 65.0329 54.1767 65.0329C54.2646 65.0329 54.3368 65.0151 54.3941 64.9794C54.4514 64.9437 54.4939 64.8941 54.5236 64.8306C54.5532 64.7671 54.57 64.6918 54.5749 64.6045C54.5799 64.5172 54.5749 64.421 54.5631 64.3169H55.7846C55.83 64.664 55.8231 64.9615 55.7628 65.2075C55.7025 65.4544 55.6047 65.6557 55.4693 65.8134C55.3339 65.9711 55.1709 66.0861 54.9782 66.1585C54.7854 66.2319 54.5789 66.2686 54.3575 66.2686C54.2142 66.2686 54.0808 66.2497 53.9563 66.2121C53.8328 66.1754 53.7201 66.1248 53.6193 66.0633C53.5185 66.0018 53.4286 65.9304 53.3505 65.8491C53.2724 65.7678 53.2072 65.6815 53.1548 65.5913C53.1025 65.6825 53.0323 65.7678 52.9443 65.8491C52.8564 65.9304 52.7556 66.0018 52.6409 66.0633C52.5273 66.1248 52.4047 66.1744 52.2743 66.2121C52.1438 66.2497 52.0104 66.2686 51.8731 66.2686C51.5371 66.2686 51.2594 66.2121 51.037 66.101C50.8156 65.9889 50.6378 65.8461 50.5043 65.6726C50.3709 65.499 50.2761 65.3086 50.2207 65.1004C50.1654 64.8931 50.1377 64.6918 50.1377 64.4964C50.1377 64.1652 50.196 63.8825 50.3136 63.6475C50.4312 63.4125 50.5893 63.2181 50.7899 63.0654C50.9906 62.9126 51.2228 62.8006 51.4867 62.7292C51.7505 62.6578 52.0272 62.6221 52.3178 62.6221H56.3014L56.2915 63.7953H52.4502C52.2545 63.7953 52.1004 63.8191 51.9887 63.8677C51.876 63.9163 51.791 63.9767 51.7317 64.0481C51.6734 64.1196 51.6369 64.1959 51.622 64.2762C51.6072 64.3576 51.6003 64.431 51.6003 64.4954L51.5993 64.4974Z" fill="#30170E"/>
<path d="M61.453 68.8401C61.1141 68.8372 60.8186 68.8729 60.5656 68.9492C60.3126 69.0256 60.0991 69.1218 59.9252 69.2388C59.7513 69.3558 59.6139 69.4808 59.5151 69.6137C59.4153 69.7466 59.353 69.8685 59.3273 69.9786C59.4083 70.053 59.4844 70.1413 59.5546 70.2434C59.6248 70.3455 59.686 70.4576 59.7374 70.5796C59.7898 70.7016 59.8293 70.8315 59.857 70.9693C59.8847 71.1072 59.8965 71.249 59.8936 71.3948L59.9133 75.8H58.2709L58.2659 71.3749C58.2629 71.2649 58.2511 71.1528 58.2313 71.0388C58.2116 70.9247 58.178 70.8136 58.1285 70.7055C58.0801 70.5974 58.0109 70.4933 57.923 70.3961C57.835 70.2989 57.7214 70.2127 57.5811 70.1383C57.6295 69.9181 57.7036 69.699 57.8014 69.4818C57.8993 69.2646 58.0238 69.0563 58.175 68.856C58.3262 68.6567 58.5061 68.4702 58.7126 68.2987C58.9191 68.1261 59.1583 67.9773 59.4291 67.8504C59.6999 67.7245 60.0023 67.6253 60.3383 67.5539C60.6743 67.4825 61.0449 67.4468 61.453 67.4468C61.9353 67.4468 62.3642 67.4904 62.7407 67.5787C63.1172 67.6659 63.4463 67.7889 63.728 67.9466C64.0096 68.1043 64.2478 68.2897 64.4415 68.5039C64.6352 68.7182 64.7913 68.9532 64.9109 69.2071C65.0295 69.4619 65.1155 69.7307 65.1679 70.0123C65.2202 70.295 65.2459 70.5816 65.2459 70.8741L65.2608 75.8H63.5985L63.5738 70.7373C63.5738 70.5072 63.5382 70.2801 63.4691 70.056C63.3989 69.8318 63.2813 69.6305 63.1172 69.452C62.9522 69.2735 62.7348 69.1287 62.462 69.0167C62.1903 68.9046 61.8533 68.8451 61.453 68.8391V68.8401Z" fill="#30170E"/>
<path d="M68.9551 72.9678C68.9551 73.2207 68.9937 73.4458 69.0698 73.6421C69.1459 73.8385 69.2506 74.0041 69.3831 74.139C69.5155 74.2739 69.6696 74.375 69.8475 74.4434C70.0254 74.5119 70.2132 74.5456 70.4118 74.5456C70.6105 74.5456 70.7893 74.5208 70.9593 74.4702C71.1283 74.4196 71.2765 74.3373 71.4021 74.2223C71.5276 74.1072 71.6264 73.9575 71.6975 73.772C71.7687 73.5866 71.8053 73.3605 71.8053 73.0907L71.8102 72.5701C71.8102 72.2815 71.7756 72.0485 71.7054 71.8719C71.6353 71.6954 71.5365 71.5576 71.41 71.4584C71.2825 71.3592 71.1323 71.2928 70.9583 71.2591C70.7844 71.2253 70.5907 71.2045 70.3792 71.1986L70.3644 70.0006C70.6609 69.9817 70.9139 69.9173 71.1224 69.8082C71.3309 69.6991 71.4999 69.5464 71.6303 69.348C71.7608 69.1497 71.8557 68.9077 71.914 68.6201C71.9723 68.3325 72.0019 68.0023 72.0019 67.6294H73.6444C73.6444 67.9279 73.6227 68.2254 73.5782 68.5199C73.5347 68.8155 73.4586 69.0942 73.3509 69.355C73.2432 69.6158 73.0979 69.8508 72.9161 70.0581C72.7332 70.2654 72.504 70.433 72.2272 70.5589C72.5208 70.6531 72.751 70.781 72.919 70.9437C73.087 71.1063 73.2125 71.2799 73.2955 71.4673C73.3786 71.6538 73.4299 71.8442 73.4497 72.0395C73.4695 72.2339 73.4774 72.4114 73.4744 72.5701L73.4695 73.2127C73.4724 73.5311 73.4349 73.8216 73.3548 74.0844C73.2748 74.3472 73.1651 74.5823 73.0248 74.7876C72.8844 74.9938 72.7184 75.1723 72.5267 75.3251C72.334 75.4778 72.1245 75.6037 71.8962 75.7049C71.6679 75.8051 71.4277 75.8804 71.1748 75.929C70.9218 75.9776 70.6658 76.0024 70.4049 76.0024C70.144 76.0024 69.8752 75.9756 69.6183 75.9221C69.3603 75.8685 69.1172 75.7902 68.8879 75.686C68.6587 75.5819 68.4452 75.452 68.2505 75.2943C68.0548 75.1376 67.8868 74.9552 67.7445 74.7489C67.6032 74.5426 67.4915 74.3115 67.4095 74.0557C67.3285 73.7988 67.287 73.5192 67.287 73.2137C67.287 72.8894 67.2919 72.5979 67.3018 72.34C67.3117 72.0822 67.3443 71.8432 67.3996 71.624C67.455 71.4048 67.5439 71.1976 67.6665 71.0012C67.789 70.8048 67.9639 70.6045 68.1922 70.4002C68.2377 70.3546 68.291 70.2991 68.3513 70.2326C68.4116 70.1662 68.4719 70.0918 68.5322 70.0115C68.5925 69.9302 68.6488 69.8469 68.7012 69.7606C68.7535 69.6743 68.7921 69.589 68.8188 69.5047C68.7051 69.5831 68.5796 69.6416 68.4422 69.6822C68.3049 69.7229 68.1616 69.7427 68.0123 69.7427C67.9175 69.7427 67.8058 69.7328 67.6773 69.713C67.5489 69.6941 67.4154 69.6565 67.2791 69.6009C67.1417 69.5464 67.0063 69.469 66.8709 69.3728C66.7355 69.2756 66.615 69.1477 66.5092 68.99C66.4035 68.8333 66.3175 68.6429 66.2523 68.4208C66.187 68.1986 66.1564 67.9348 66.1594 67.6294H67.7238C67.7208 67.7335 67.7307 67.8327 67.7534 67.9289C67.7762 68.0251 67.8107 68.1094 67.8562 68.1818C67.9017 68.2552 67.96 68.3137 68.0301 68.3573C68.1003 68.4009 68.1794 68.4228 68.2673 68.4228C68.3553 68.4228 68.4413 68.4029 68.5144 68.3642C68.5875 68.3256 68.6508 68.27 68.7021 68.1986C68.7545 68.1272 68.7941 68.0429 68.8217 67.9458C68.8494 67.8486 68.8632 67.7434 68.8632 67.6294H70.4662V69.3232C70.4632 69.4819 70.4415 69.6277 70.4029 69.7586C70.3634 69.8905 70.3041 70.0194 70.2241 70.1483C70.144 70.2763 70.0432 70.4101 69.9207 70.548C69.7981 70.6858 69.6538 70.8425 69.4878 71.0181C69.3603 71.148 69.2605 71.2918 69.1874 71.4514C69.1143 71.6101 69.0599 71.7757 69.0263 71.9483C68.9917 72.1199 68.9719 72.2934 68.965 72.4689C68.9581 72.6445 68.9571 72.8111 68.9601 72.9698L68.9551 72.9678Z" fill="#30170E"/>
<path d="M73.843 65.1937C73.3509 65.1937 72.9743 65.2879 72.7115 65.4763C72.4496 65.6648 72.3162 65.9633 72.3132 66.3718H70.8516C70.8516 65.999 70.9198 65.6638 71.0571 65.3663C71.1935 65.0697 71.3911 64.8168 71.6481 64.6096C71.905 64.4023 72.2183 64.2426 72.5869 64.1326C72.9556 64.0225 73.3726 63.964 73.8381 63.957L73.843 65.1937Z" fill="#30170E"/>
<path d="M87.9999 30.7601L79.0868 30.7354L72.5614 36.3921L70.1066 30.7354H62.9902L67.6122 40.4819L53.583 52.5599L62.7955 52.6026L70.2054 45.8054L73.3144 52.6016H80.3093L75.2811 41.7642L87.9999 30.7601Z" fill="#009D4E"/>
<path d="M69.0688 15.354C69.2072 17.258 66.5132 18.6931 62.8023 18.6931C59.0914 18.6931 56.2028 17.258 56.0644 15.354C55.9281 13.4727 58.6754 12 62.3171 12C65.9588 12 68.9325 13.4737 69.0688 15.354Z" fill="#194893"/>
<path d="M66.6868 21.1992L58.9972 41.0205C57.5326 44.4548 55.8348 47.3566 53.5865 49.4124C51.3254 51.4791 47.8131 52.5531 45.0391 52.5531H14.3223L17.6863 43.9699H40.0791C45.2506 43.9699 47.0957 39.2672 48.579 35.4888C50.0456 31.7332 54.051 21.5057 54.051 21.5057L54.1716 21.1992H66.6878H66.6868Z" fill="#194893"/>
<path d="M23.0708 20.4633C19.35 20.4722 17.752 23.6139 17.6176 25.5844C17.5237 26.9669 17.9299 28.2561 18.759 29.2171C19.522 30.0987 20.6071 30.6441 21.8127 30.7503C21.8404 30.7532 21.9827 30.7701 22.0381 30.7701H41.0965C43.2855 30.7701 45.0564 30.1771 46.3599 29.0048L46.4993 28.8809H46.525L46.2255 29.6376C45.6573 31.0745 44.8173 33.1542 44.8094 33.175C43.1343 37.4463 42.0057 39.3543 39.7495 39.3543H20.2602C20.113 39.3543 19.7354 39.3226 19.6613 39.3157C16.4535 39.033 13.5697 37.5851 11.5418 35.2387C9.33507 32.6841 8.25788 29.2528 8.50692 25.5775C8.86269 20.3403 13.1161 12.0238 23.0125 12H53.1512L49.8198 20.4633H23.0708Z" fill="#EE303D"/>
<path d="M9.17306 57.4146L8 60.591L86.6995 60.5404L87.8063 57.4146H9.17306Z" fill="#009D4E"/>
</g>
<defs>
<clipPath id="clip0_4767_19274">
<rect width="80" height="64" fill="white" transform="translate(8 12)"/>
</clipPath>
</defs>
</svg>
