<?xml version="1.0" encoding="utf-8"?>
<!-- Generator: Adobe Illustrator 22.1.0, SVG Export Plug-In . SVG Version: 6.00 Build 0)  -->
<svg version="1.1" id="Layer_1" xmlns="http://www.w3.org/2000/svg" xmlns:xlink="http://www.w3.org/1999/xlink" x="0px" y="0px"
	 viewBox="0 0 512 512" style="enable-background:new 0 0 512 512;" xml:space="preserve">
<style type="text/css">
	.st0{fill:#FCE575;}
	.st1{fill:#FFD551;}
	.st2{fill:#FFA730;}
	.st3{fill:#E58D23;}
	.st4{fill:#FF624B;}
	.st5{fill:#FFF4C1;}
	.st6{fill:#FCDA4F;}
	.st7{fill:#FF4B34;}
	.st8{fill:#CCC033;}
	.st9{fill:#99AF17;}
	.st10{fill:#FF9079;}
	.st11{fill:#EACF32;}
	.st12{fill:#F9BB32;}
	.st13{fill:#FFEA63;}
	.st14{fill:#FFEACF;}
	.st15{fill:#FFD59A;}
	.st16{fill:#FFC34C;}
	.st17{fill:#A56021;}
	.st18{fill:#FFDF74;}
	.st19{fill:#BF6C0D;}
	.st20{fill:#FFB74B;}
	.st21{fill:#8C4C17;}
	.st22{fill:#FCF9DE;}
	.st23{fill:#DB9C2E;}
	.st24{fill:#FFF9DC;}
	.st25{fill:none;}
</style>
<g>
	<g>
		<circle class="st19" cx="403.259" cy="162.307" r="71.123"/>
	</g>
	<g>
		<path class="st2" d="M403.26,213.431c-28.189,0-51.124-22.934-51.124-51.124s22.935-51.123,51.124-51.123
			s51.123,22.934,51.123,51.123S431.449,213.431,403.26,213.431z"/>
	</g>
	<g>
		<path class="st17" d="M372.136,172.307c0-38.112,29.979-69.219,67.641-71.035c-10.675-6.401-23.164-10.088-36.517-10.088
			c-39.28,0-71.124,31.843-71.124,71.123c0,39.281,31.843,71.124,71.124,71.124c1.168,0,2.329-0.032,3.483-0.088
			C386.014,220.914,372.136,198.235,372.136,172.307z"/>
	</g>
	<g>
		<path class="st3" d="M403.26,111.184c-28.189,0-51.124,22.934-51.124,51.123c0,20.714,12.391,38.578,30.144,46.602
			c-6.435-10.693-10.144-23.212-10.144-36.602c0-25.905,13.858-48.561,34.557-60.995
			C405.557,111.236,404.415,111.184,403.26,111.184z"/>
	</g>
	<g>
		<circle class="st19" cx="108.741" cy="162.307" r="71.123"/>
	</g>
	<g>
		<path class="st17" d="M74.617,162.307c0-32.879,22.316-60.533,52.624-68.678c-5.901-1.586-12.099-2.445-18.5-2.445
			c-39.28,0-71.124,31.843-71.124,71.123c0,39.281,31.843,71.124,71.124,71.124c6.401,0,12.599-0.859,18.5-2.445
			C96.933,222.841,74.617,195.186,74.617,162.307z"/>
	</g>
	<g>
		<path class="st2" d="M108.741,213.431c-28.189,0-51.124-22.934-51.124-51.124s22.935-51.123,51.124-51.123
			s51.123,22.934,51.123,51.123S136.931,213.431,108.741,213.431z"/>
	</g>
	<g>
		<path class="st3" d="M94.234,211.322c-12.148-12.755-19.617-30.007-19.617-49.014s7.468-36.259,19.617-49.014
			c-21.144,6.27-36.617,25.864-36.617,49.014S73.09,205.052,94.234,211.322z"/>
	</g>
	<g>
		<ellipse class="st14" cx="251.22" cy="256" rx="187.821" ry="176.427"/>
	</g>
	<g>
		
			<ellipse transform="matrix(0.866 -0.5 0.5 0.866 -99.1755 110.9098)" class="st19" cx="157.373" cy="240.519" rx="64.93" ry="47.448"/>
	</g>
	<g>
		<circle class="st21" cx="179.955" cy="229.778" r="18.76"/>
	</g>
	<g>
		<path class="st15" d="M105.398,276c0-97.438,84.09-176.428,187.821-176.428c22.171,0,43.44,3.619,63.188,10.245
			c-30.011-19.092-66.212-30.245-105.188-30.245C147.489,79.573,63.398,158.562,63.398,256c0,76.612,51.99,141.808,124.633,166.182
			C138.17,390.462,105.398,336.827,105.398,276z"/>
	</g>
	<g>
		<path class="st22" d="M360.6,385.104c-2.206,0-4.328-1.221-5.377-3.329c-1.476-2.967-0.267-6.568,2.7-8.044
			c32.064-15.946,46.136-58.313,46.274-58.738c1.022-3.149,4.403-4.875,7.556-3.858c3.15,1.021,4.88,4.397,3.862,7.549
			c-0.624,1.934-15.706,47.569-52.349,65.792C362.408,384.901,361.497,385.104,360.6,385.104z"/>
	</g>
	<g>
		<circle class="st15" cx="219.327" cy="142.143" r="17.904"/>
	</g>
	<g>
		
			<ellipse transform="matrix(0.5 -0.866 0.866 0.5 -36.109 418.495)" class="st19" cx="344.373" cy="240.519" rx="47.448" ry="64.93"/>
	</g>
	<g>
		<circle class="st21" cx="321.791" cy="229.778" r="18.76"/>
	</g>
	<g>
		<path class="st17" d="M105.398,276c0-23.315,4.825-45.568,13.571-65.941c-20.601,18.489-28.644,44.191-17.828,62.925
			c1.239,2.147,2.684,4.124,4.306,5.931C105.431,277.943,105.398,276.975,105.398,276z"/>
	</g>
	<g>
		<ellipse class="st20" cx="251.112" cy="341.859" rx="63.214" ry="41.141"/>
	</g>
	<g>
		<path class="st15" d="M313.415,334.754c-2.964-14.024-20.876-63.965-20.876-63.965c-2.323-11.2-20.061-19.911-41.607-19.911
			c-21.048,0-38.463,8.313-41.424,19.139c-14.364,24.74-19.915,58.264-21.265,67.831c-0.219,0.862-0.342,1.74-0.346,2.633
			c-0.001,0.008-0.002,0.019-0.002,0.019h0.001c0,0.009-0.001,0.018-0.001,0.028c0,10.869,16.462,19.679,36.768,19.679
			c7.623,0,14.7-1.244,20.569-3.371c3.778-1.369,8.193-1.369,11.971,0c5.869,2.127,12.946,3.371,20.57,3.371
			c20.307,0,36.768-8.811,36.768-19.679c0-0.974-0.135-1.931-0.393-2.866C313.884,336.694,313.621,335.728,313.415,334.754z"/>
	</g>
	<g>
		<path class="st19" d="M283.029,300.213c0-9.045-14.242-16.377-31.81-16.377s-31.81,7.332-31.81,16.377
			c0,0-2.105,17.696,14.859,26.788c4.555,3.009,10.474,4.831,16.951,4.831s12.396-1.823,16.951-4.831
			C285.135,317.909,283.029,300.213,283.029,300.213z"/>
	</g>
	<g>
		<path class="st3" d="M251.217,332.33c-2.612,0-5.015-1.72-5.767-4.356c-0.908-3.183,0.933-6.498,4.111-7.412
			c0.256-0.075,18.231-5.633,17.776-16.66c-0.137-3.311,2.438-6.105,5.748-6.242c3.306-0.133,6.105,2.438,6.242,5.748
			c0.852,20.66-25.347,28.373-26.463,28.69C252.315,332.255,251.762,332.33,251.217,332.33z"/>
	</g>
</g>
</svg>
