<svg xmlns="http://www.w3.org/2000/svg" viewBox="0 0 64 64"><defs><style>.cls-1{fill:#d8d9dd;}.cls-2{fill:#434347;}.cls-3{fill:#281111;}.cls-4{fill:#3e2c27;}</style></defs><title>panda</title><g id="panda"><path class="cls-1" d="M57,38.33C57,50.76,45.81,57,32,57S7,50.76,7,38.33a27,27,0,0,1,5.81-16,27,27,0,0,1,11.07-8.71,21,21,0,0,1,16.24,0,27,27,0,0,1,11.07,8.71A27,27,0,0,1,57,38.33Z"/><path class="cls-2" d="M23.88,13.63a27,27,0,0,0-11.07,8.71,8,8,0,1,1,11.07-8.71Z"/><path class="cls-2" d="M56,15a8,8,0,0,1-4.81,7.34,27,27,0,0,0-11.07-8.71A8,8,0,0,1,56,15Z"/><path class="cls-2" d="M18.74,40a5.66,5.66,0,0,1-5.6-7c1-4.83,7.55-8,11.21-8C31.48,25,27.4,40,18.74,40Z"/><path class="cls-2" d="M45.26,40a5.66,5.66,0,0,0,5.6-7c-1-4.83-7.55-8-11.21-8C32.52,25,36.6,40,45.26,40Z"/><circle class="cls-3" cx="23.5" cy="30.5" r="1.5"/><circle class="cls-3" cx="40.5" cy="30.5" r="1.5"/><path class="cls-3" d="M32,50a1,1,0,0,1-1-1V43a1,1,0,0,1,2,0v6A1,1,0,0,1,32,50Z"/><path class="cls-3" d="M37,50H27a1,1,0,0,1,0-2H37a1,1,0,0,1,0,2Z"/><path class="cls-4" d="M32,43.38h0l-2.23-1.12A1.4,1.4,0,0,1,29,41h0a1.39,1.39,0,0,1,1.39-1.39h3.22A1.39,1.39,0,0,1,35,41h0a1.4,1.4,0,0,1-.77,1.24Z"/><path class="cls-3" d="M32,58C16.21,58,6,50.28,6,38.33a28.07,28.07,0,0,1,6-16.6,29.77,29.77,0,0,1,2.76-3.15A1,1,0,1,1,16.18,20a28,28,0,0,0-2.57,2.94A26.1,26.1,0,0,0,8,38.33C8,51.36,20.4,56,32,56a40.31,40.31,0,0,0,6.87-.57,1,1,0,0,1,1.16.81,1,1,0,0,1-.82,1.16A42.09,42.09,0,0,1,32,58Z"/><path class="cls-3" d="M47.91,54.42A1,1,0,0,1,47,53.9a1,1,0,0,1,.4-1.36C53,49.45,56,44.54,56,38.33A26.1,26.1,0,0,0,50.4,23a25.82,25.82,0,0,0-10.66-8.39,20.07,20.07,0,0,0-15.48,0,23.21,23.21,0,0,0-5.15,2.93,1,1,0,1,1-1.2-1.6,25.76,25.76,0,0,1,5.59-3.18,22.12,22.12,0,0,1,17,0,28,28,0,0,1,11.49,9,28.12,28.12,0,0,1,6,16.6c0,7-3.32,12.5-9.61,16A1,1,0,0,1,47.91,54.42Z"/><path class="cls-3" d="M42.93,56.49a1,1,0,0,1-.29-2c.44-.13.88-.28,1.31-.43A1,1,0,0,1,44.63,56c-.46.17-.93.32-1.41.47A1,1,0,0,1,42.93,56.49Z"/><path class="cls-3" d="M12.81,23.34a1.1,1.1,0,0,1-.4-.08,9,9,0,1,1,12.46-9.8,1,1,0,0,1-.61,1.09,23.66,23.66,0,0,0-5.15,2.94,1,1,0,1,1-1.2-1.6A25.58,25.58,0,0,1,22.72,13a7,7,0,1,0-10.2,8,31.84,31.84,0,0,1,2.26-2.5A1,1,0,1,1,16.18,20a28,28,0,0,0-2.57,2.94A1,1,0,0,1,12.81,23.34Z"/><path class="cls-3" d="M51.19,23.34a1,1,0,0,1-.8-.4,25.79,25.79,0,0,0-10.65-8.38,1,1,0,0,1-.61-1.1,9,9,0,0,1,2.63-4.93A1,1,0,0,1,43.14,10,7,7,0,0,0,41.28,13a27.82,27.82,0,0,1,10.2,8A7,7,0,0,0,48,8a6.84,6.84,0,0,0-1.86.25,1,1,0,0,1-1.27-1,1,1,0,0,1,.8-1A8.67,8.67,0,0,1,48,6a9,9,0,0,1,3.59,17.26A1.1,1.1,0,0,1,51.19,23.34Z"/><path class="cls-3" d="M18.74,41a6.66,6.66,0,0,1-6.58-8.17C13.28,27.52,20.24,24,24.35,24a4.26,4.26,0,0,1,4.06,2.45c1.34,2.77.34,7.37-2.31,10.68a1,1,0,1,1-1.56-1.24c2.13-2.67,3.06-6.52,2.07-8.57A2.27,2.27,0,0,0,24.35,26c-3.42,0-9.36,3.11-10.23,7.25a4.69,4.69,0,0,0,.9,4A4.75,4.75,0,0,0,18.74,39a6.42,6.42,0,0,0,3.1-.8,1,1,0,0,1,1,1.76A8.46,8.46,0,0,1,18.74,41Z"/><path class="cls-3" d="M45.26,41C39,41,35,34.09,35,29.34a6,6,0,0,1,1.08-3.69A4.31,4.31,0,0,1,39.65,24c4.11,0,11.07,3.52,12.19,8.83A6.66,6.66,0,0,1,45.26,41ZM39.65,26a2.31,2.31,0,0,0-2,.86A4.06,4.06,0,0,0,37,29.34C37,33.19,40.29,39,45.26,39A4.73,4.73,0,0,0,49,37.27a4.67,4.67,0,0,0,.91-4C49,29.11,43.08,26,39.65,26Z"/><path class="cls-3" d="M32,44.38a1,1,0,0,1-.45-.11l-2.23-1.12a2.39,2.39,0,0,1,1.07-4.52h3.22a2.39,2.39,0,0,1,1.07,4.52l-2.23,1.12A1,1,0,0,1,32,44.38Zm-1.61-3.75A.38.38,0,0,0,30,41a.37.37,0,0,0,.22.34l1.78.9,1.78-.9A.37.37,0,0,0,34,41a.38.38,0,0,0-.39-.39Z"/></g></svg>